<svg width="34" height="34" viewBox="0 0 34 34" fill="none" xmlns="http://www.w3.org/2000/svg">
<path d="M24.4599 13.2435H29.7724V7.93103" stroke="#FF6550" stroke-width="2" stroke-linecap="round" stroke-linejoin="round"/>
<path d="M25.2643 25.2643C23.6298 26.8988 21.5473 28.012 19.2801 28.4629C17.013 28.9139 14.663 28.6824 12.5274 27.7978C10.3918 26.9132 8.56644 25.4152 7.2822 23.4932C5.99796 21.5712 5.3125 19.3116 5.3125 17C5.3125 14.6884 5.99796 12.4288 7.2822 10.5068C8.56644 8.58478 10.3918 7.08676 12.5274 6.20216C14.663 5.31756 17.013 5.08611 19.2801 5.53708C21.5473 5.98804 23.6298 7.10117 25.2643 8.73569L29.7721 13.2435" stroke="#FF6550" stroke-width="2" stroke-linecap="round" stroke-linejoin="round"/>
<path d="M16.7923 19.5169V21H11.3304V19.8202L14.1182 16.9551C14.4141 16.6479 14.6138 16.3858 14.717 16.1685C14.8203 15.9438 14.8719 15.7228 14.8719 15.5056C14.8719 15.191 14.7721 14.9513 14.5725 14.7865C14.3797 14.6142 14.0941 14.5281 13.7155 14.5281C13.3988 14.5281 13.1132 14.5955 12.8585 14.7303C12.6038 14.8577 12.3904 15.0524 12.2184 15.3146L11 14.4607C11.2822 14.0037 11.6711 13.6479 12.1667 13.3933C12.6623 13.1311 13.2302 13 13.8704 13C14.4073 13 14.8753 13.0974 15.2746 13.2921C15.6807 13.4794 15.9939 13.7491 16.2141 14.1011C16.4413 14.4457 16.5549 14.8539 16.5549 15.3258C16.5549 15.7528 16.4723 16.1536 16.3071 16.5281C16.1419 16.9026 15.8218 17.3296 15.3468 17.809L13.6845 19.5169H16.7923Z" fill="#FF6550"/>
<path d="M24 19.3483H22.8229V21H21.1916V19.3483H17.2991V18.1236L20.7063 13.1348H22.4616L19.3021 17.8652H21.2432V16.3933H22.8229V17.8652H24V19.3483Z" fill="#FF6550"/>
</svg>
