<svg width="34" height="34" viewBox="0 0 34 34" fill="none" xmlns="http://www.w3.org/2000/svg">
<path d="M8.01847 13.8125C8.01671 12.5524 8.26438 11.3044 8.74719 10.1405C9.23 8.97652 9.93842 7.91964 10.8316 7.03076C11.7248 6.14187 12.785 5.43855 13.9513 4.96134C15.1176 4.48414 16.3667 4.24248 17.6268 4.25031C22.8848 4.2894 27.0906 8.65986 27.0906 13.9326V14.875C27.0906 19.6318 28.0858 22.3921 28.9623 23.9007C29.0567 24.0619 29.107 24.2452 29.108 24.432C29.109 24.6188 29.0607 24.8026 28.968 24.9648C28.8753 25.127 28.7415 25.2619 28.58 25.3559C28.4186 25.4498 28.2352 25.4996 28.0484 25.5H7.05964C6.8728 25.4996 6.6894 25.4498 6.52792 25.3558C6.36644 25.2618 6.23261 25.1269 6.13993 24.9647C6.04724 24.8024 5.99898 24.6186 6.00002 24.4318C6.00105 24.245 6.05134 24.0617 6.14581 23.9005C7.02281 22.3918 8.01846 19.6316 8.01846 14.875L8.01847 13.8125Z" stroke="#8CA5D0" stroke-width="2.5" stroke-linecap="round" stroke-linejoin="round"/>
<path d="M13.3037 25.5V26.5625C13.3037 27.6897 13.7515 28.7707 14.5485 29.5677C15.3455 30.3647 16.4265 30.8125 17.5537 30.8125C18.6809 30.8125 19.7619 30.3647 20.5589 29.5677C21.3559 28.7707 21.8037 27.6897 21.8037 26.5625V25.5" stroke="#8CA5D0" stroke-width="2.5" stroke-linecap="round" stroke-linejoin="round"/>
</svg>
