<svg width="34" height="34" viewBox="0 0 34 34" fill="none" xmlns="http://www.w3.org/2000/svg">
<path d="M16.5 9.5625V11.6875" stroke="#8CA5D0" stroke-width="2.5" stroke-linecap="round" stroke-linejoin="round"/>
<path d="M16.5 22.3124V24.4374" stroke="#8CA5D0" stroke-width="2.5" stroke-linecap="round" stroke-linejoin="round"/>
<path d="M16.5 29.7499C23.5416 29.7499 29.2499 24.0416 29.2499 17C29.2499 9.95835 23.5416 4.25 16.5 4.25C9.45835 4.25 3.75 9.95835 3.75 17C3.75 24.0416 9.45835 29.7499 16.5 29.7499Z" stroke="#8CA5D0" stroke-width="2.5" stroke-linecap="round" stroke-linejoin="round"/>
<path d="M13.312 22.3123H18.0932C18.7977 22.3123 19.4733 22.0325 19.9715 21.5343C20.4696 21.0362 20.7495 20.3606 20.7495 19.6561C20.7495 18.9516 20.4696 18.276 19.9715 17.7779C19.4733 17.2797 18.7977 16.9999 18.0932 16.9999H14.9058C14.2013 16.9999 13.5256 16.72 13.0275 16.2219C12.5294 15.7237 12.2495 15.0481 12.2495 14.3436C12.2495 13.6391 12.5294 12.9635 13.0275 12.4654C13.5256 11.9672 14.2013 11.6874 14.9058 11.6874H19.687" stroke="#8CA5D0" stroke-width="2.5" stroke-linecap="round" stroke-linejoin="round"/>
</svg>
