<svg width="34" height="34" viewBox="0 0 34 34" fill="none" xmlns="http://www.w3.org/2000/svg">
<path d="M17 29.75C24.0416 29.75 29.75 24.0416 29.75 17C29.75 9.95837 24.0416 4.25 17 4.25C9.95837 4.25 4.25 9.95837 4.25 17C4.25 24.0416 9.95837 29.75 17 29.75Z" stroke="#8CA5D0" stroke-width="2.5" stroke-linecap="round" stroke-linejoin="round"/>
<path d="M16.9999 18.9479C18.0757 18.9479 18.9478 18.0758 18.9478 17C18.9478 15.9242 18.0757 15.0521 16.9999 15.0521C15.9241 15.0521 15.0519 15.9242 15.0519 17C15.0519 18.0758 15.9241 18.9479 16.9999 18.9479Z" fill="#8CA5D0"/>
<path d="M10.6249 18.9479C11.7007 18.9479 12.5728 18.0758 12.5728 17C12.5728 15.9242 11.7007 15.0521 10.6249 15.0521C9.54905 15.0521 8.67694 15.9242 8.67694 17C8.67694 18.0758 9.54905 18.9479 10.6249 18.9479Z" fill="#8CA5D0"/>
<path d="M23.3749 18.9479C24.4507 18.9479 25.3228 18.0758 25.3228 17C25.3228 15.9242 24.4507 15.0521 23.3749 15.0521C22.2991 15.0521 21.4269 15.9242 21.4269 17C21.4269 18.0758 22.2991 18.9479 23.3749 18.9479Z" fill="#8CA5D0"/>
</svg>
