<svg width="251" height="179" viewBox="0 0 251 179" fill="none" xmlns="http://www.w3.org/2000/svg">
<path d="M196.521 83.3914C196.236 83.3914 196.022 83.1783 196.022 82.9652C195.951 82.6811 196.165 82.397 196.45 82.326L237.023 76.0752C237.309 76.0041 237.594 76.2172 237.665 76.5014C237.737 76.7855 237.523 77.0696 237.237 77.1406L196.664 83.3914C196.592 83.3914 196.521 83.3914 196.521 83.3914Z" fill="#8CA5D0"/>
<path d="M215.489 84.7409C215.204 84.7409 214.99 84.5278 214.99 84.3147C214.918 84.0306 215.132 83.7465 215.418 83.6754L250.287 78.4901C250.572 78.4191 250.857 78.6322 250.928 78.9163C251 79.2005 250.786 79.4846 250.501 79.5556L215.632 84.7409C215.56 84.7409 215.56 84.7409 215.489 84.7409Z" fill="#8CA5D0"/>
<path d="M230.677 88.2925C230.392 88.2925 230.178 88.0794 230.178 87.7952C230.178 87.5111 230.32 87.227 230.677 87.227L248.218 85.1671C248.504 85.096 248.789 85.3091 248.789 85.6643C248.789 85.9484 248.646 86.2325 248.29 86.2325L230.677 88.2925Z" fill="#8CA5D0"/>
<path d="M124.787 90.2098C124.787 90.2098 124.715 90.2098 124.787 90.2098L51.198 84.6693C50.3423 84.5983 49.7005 83.959 49.5579 83.1066C49.4866 82.2542 49.9857 81.4729 50.7701 81.2598L184.47 42.3344C187.394 41.482 190.531 41.6241 193.312 42.6896L217.913 52.0658C218.912 52.4209 219.482 53.4154 219.411 54.4808C219.339 55.5463 218.555 56.3277 217.485 56.5407L198.233 59.8082L201.941 70.2499C202.868 72.878 201.584 75.7193 199.088 76.6427C198.589 76.7848 198.161 76.9269 197.662 76.9269L169.924 78.7027C169.068 78.7737 168.284 79.1288 167.713 79.7681L167 80.5495C166.786 80.7626 166.501 80.8336 166.216 80.6205C166.002 80.4074 165.931 80.1233 166.145 79.8392L166.858 79.0578C167.571 78.2054 168.64 77.6372 169.781 77.5661L197.52 75.7904C197.947 75.7904 198.304 75.7193 198.66 75.5773C200.586 74.8669 201.584 72.5939 200.871 70.534L197.02 59.5241C196.949 59.382 196.949 59.24 197.092 59.0979C197.163 58.9558 197.306 58.8848 197.448 58.8138L217.343 55.4753C218.056 55.3332 218.341 54.836 218.412 54.3388C218.484 53.9126 218.27 53.2733 217.628 53.0602L193.027 43.684C190.389 42.6896 187.537 42.5475 184.827 43.3288L51.1267 82.2542C50.6988 82.3963 50.6275 82.6804 50.6275 82.9646C50.6275 83.2487 50.8414 83.5328 51.2693 83.5328L124.858 89.0733C125.143 89.0733 125.357 89.3574 125.357 89.6415C125.286 89.9967 125.072 90.2098 124.787 90.2098Z" fill="#8CA5D0"/>
<path d="M162.579 84.7404C162.437 84.7404 162.294 84.6694 162.223 84.5983C162.009 84.3852 162.009 84.0301 162.223 83.817L166.287 79.6971C166.501 79.484 166.858 79.484 167.072 79.6971C167.286 79.9102 167.286 80.2654 167.072 80.4785L163.007 84.5983C162.865 84.6694 162.722 84.7404 162.579 84.7404Z" fill="#8CA5D0"/>
<path d="M50.4136 83.2487C50.1284 83.2487 49.9145 83.0356 49.9145 82.8225C49.8431 82.5384 50.0571 82.2542 50.3423 82.1832L204.935 57.5352C205.221 57.4642 205.506 57.6773 205.577 57.9614C205.649 58.2455 205.435 58.5296 205.149 58.6007L50.4849 83.2487C50.4136 83.1776 50.4136 83.2487 50.4136 83.2487Z" fill="#8CA5D0"/>
<path d="M204.793 56.186C203.794 56.186 202.796 55.4047 202.297 54.2682C202.012 53.5579 202.012 52.7765 202.297 52.2083C202.511 51.7821 202.939 51.4269 203.438 51.3559C203.723 51.2848 203.937 51.2848 204.222 51.3559C204.507 51.4269 204.721 51.711 204.65 51.9952C204.579 52.2793 204.293 52.4924 204.008 52.4213C203.866 52.4213 203.794 52.4213 203.652 52.4213C203.438 52.4924 203.295 52.5634 203.224 52.7765C203.081 53.0606 203.081 53.4868 203.224 53.913C203.509 54.6944 204.293 55.2626 204.864 55.1206C205.078 55.0495 205.22 54.9785 205.363 54.8364C205.506 54.6233 205.506 54.2682 205.363 53.842L205.292 53.5579C205.007 52.8475 205.007 52.1372 205.363 51.569C205.577 51.1428 206.005 50.8586 206.433 50.7876C207.502 50.5745 208.786 51.3559 209.285 52.6344C209.57 53.3448 209.57 54.1261 209.285 54.6944C209.071 55.1206 208.643 55.4757 208.144 55.5467C207.859 55.6178 207.574 55.6178 207.217 55.5467C206.932 55.4757 206.789 55.1916 206.861 54.9075C206.932 54.6233 207.217 54.4813 207.502 54.5523C207.645 54.6233 207.787 54.6233 207.93 54.5523C208.144 54.4813 208.287 54.4102 208.358 54.1971C208.501 53.913 208.501 53.4868 208.358 53.0606C208.073 52.2793 207.288 51.711 206.718 51.8531C206.575 51.9241 206.433 51.9952 206.361 52.1372C206.219 52.4213 206.219 52.8475 206.361 53.2737L206.433 53.5579C206.647 54.2682 206.647 54.9075 206.361 55.4047C206.147 55.8309 205.72 56.115 205.22 56.2571C205.078 56.186 204.935 56.186 204.793 56.186Z" fill="#8CA5D0"/>
<path d="M201.798 54.8362C201.584 54.8362 201.298 54.6941 201.298 54.41C201.227 54.1259 201.441 53.8418 201.726 53.7707L209.713 51.9949C209.998 51.9239 210.283 52.137 210.354 52.4211C210.426 52.7053 210.212 52.9894 209.927 53.0604L201.94 54.8362C201.869 54.8362 201.798 54.8362 201.798 54.8362Z" fill="#8CA5D0"/>
<path d="M50.9841 82.2545C50.7702 82.2545 50.5563 82.1125 50.485 81.8994C50.4137 81.6152 50.5563 81.3311 50.7702 81.2601L167.143 35.8708C169.282 35.0184 171.635 35.0184 173.774 35.7998L183.971 39.6355C184.827 39.9196 184.97 40.4879 184.97 40.772C184.97 41.8375 183.33 42.7609 182.331 43.045C182.046 43.116 181.761 42.974 181.69 42.6898C181.618 42.4057 181.761 42.1216 182.046 42.0505C183.187 41.6954 183.971 40.9851 183.971 40.772C183.971 40.772 183.9 40.7009 183.686 40.6299L173.489 36.7942C171.564 36.0839 169.496 36.1549 167.571 36.8652L56.1895 80.2656L196.45 55.4045C197.02 55.3335 197.448 54.8363 197.52 54.197C197.734 52.1371 199.017 50.7875 200.087 50.0771C200.158 50.0061 200.158 49.9351 200.158 49.864C200.158 49.793 200.158 49.722 200.015 49.722L183.544 43.6133C183.258 43.5422 183.116 43.1871 183.258 42.9029C183.33 42.6188 183.686 42.4767 183.971 42.6188L200.443 48.7275C200.871 48.8696 201.228 49.2958 201.299 49.793C201.37 50.2902 201.156 50.7164 200.728 51.0006C199.873 51.5688 198.803 52.6343 198.661 54.339C198.518 55.4756 197.734 56.3279 196.664 56.541L51.0554 82.3256C51.0554 82.2545 50.9841 82.2545 50.9841 82.2545Z" fill="#8CA5D0"/>
<path d="M51.4831 82.2543C51.2692 82.2543 51.0553 82.1122 50.984 81.8992C50.9127 81.615 51.0553 81.3309 51.2692 81.1888L167.071 37.8595C167.214 37.7884 167.357 37.7884 167.428 37.8595C167.428 37.8595 168.854 38.3567 170.779 37.8595C170.922 37.8595 170.993 37.8595 171.136 37.8595L182.402 42.0503C182.688 42.1214 182.83 42.4765 182.688 42.7607C182.616 43.0448 182.26 43.1868 181.975 43.0448L170.851 38.9249C169.068 39.3511 167.713 39.067 167.214 38.9249L51.6258 82.2543C51.6258 82.2543 51.5545 82.2543 51.4831 82.2543Z" fill="#8CA5D0"/>
<path d="M137.836 179C137.622 179 137.479 178.858 137.337 178.716L132.63 168.984C130.491 163.657 124.002 155.63 123.931 155.559C118.226 148.03 125.072 124.874 125.571 123.382C126.783 115.355 123.147 113.011 122.006 112.443C120.58 113.935 119.51 114.219 118.868 114.29C118.512 115 118.084 115.426 117.371 115.782C115.873 116.492 114.019 115.782 113.948 115.782C113.734 115.711 113.591 115.497 113.591 115.284L114.091 105.624C114.162 104.203 114.59 103.138 115.303 102.57C115.659 102.286 116.087 102.144 116.372 102.144C118.797 97.0292 121.364 95.0403 122.006 94.6141L123.86 89.5709C123.931 89.3578 124.145 89.2157 124.359 89.2157L134.698 89.784L131.489 82.2546C129.493 77.0693 131.347 74.5121 131.418 74.3701C133.415 71.3867 136.624 72.026 138.05 72.8784C138.121 72.8784 138.121 72.9494 138.192 73.0205C140.331 75.3645 143.112 78.4899 143.112 78.4899L148.389 85.0248C149.245 85.9483 150.386 90.1391 150.814 91.7729C152.026 91.6308 153.167 91.1336 154.165 90.4233L162.437 83.8173C162.579 83.6752 162.722 83.6752 162.936 83.7463C163.078 83.8173 163.221 83.8883 163.292 84.1014L170.566 104.559C170.637 104.772 171.778 109.034 169.995 113.224L160.511 133.682C160.44 133.824 155.235 143.555 159.513 150.729L162.508 154.423C162.722 154.636 162.651 154.991 162.437 155.204C162.223 155.417 161.866 155.346 161.652 155.133L158.657 151.369C158.657 151.369 158.657 151.297 158.586 151.297C153.951 143.555 159.299 133.611 159.513 133.184L168.926 112.798C170.566 108.963 169.496 104.914 169.496 104.843L162.508 85.1669L154.807 91.2756C153.523 92.2701 152.026 92.8383 150.386 92.9094C150.101 92.9094 149.887 92.7673 149.815 92.4832C149.245 90.2102 148.104 86.3744 147.533 85.7352L142.257 79.2002C142.257 79.2002 139.476 76.1459 137.408 73.8018C136.909 73.5177 134.128 72.3102 132.274 75.0804C132.274 75.1514 130.705 77.3534 132.488 81.9705L136.053 90.2812C136.124 90.4233 136.124 90.6364 135.982 90.7784C135.91 90.9205 135.697 90.9915 135.483 90.9915L124.787 90.2102L123.004 95.0403C122.933 95.1824 122.861 95.2534 122.79 95.3244C122.79 95.3244 119.938 97.1002 117.299 102.854C117.228 103.067 116.943 103.209 116.729 103.138C116.729 103.138 116.372 103.138 116.087 103.351C115.802 103.635 115.374 104.203 115.303 105.624L114.804 114.858C115.303 115 116.301 115.142 117.014 114.787C117.513 114.574 117.87 114.148 118.084 113.58C118.155 113.295 118.44 113.153 118.726 113.224C118.726 113.224 119.866 113.367 121.506 111.52C121.649 111.378 121.863 111.307 122.077 111.378C122.362 111.449 128.209 113.438 126.641 123.666V123.737C126.569 123.95 119.367 147.746 124.858 154.92C125.143 155.204 131.489 163.089 133.7 168.558L138.406 178.29C138.549 178.574 138.406 178.858 138.121 179C137.978 179 137.907 179 137.836 179Z" fill="#8CA5D0"/>
<path d="M134.912 107.755C134.698 107.755 134.484 107.613 134.413 107.471C134.342 107.329 132.916 104.275 129.921 104.772C129.636 104.843 129.35 104.63 129.279 104.346C129.208 104.062 129.422 103.777 129.707 103.706C132.773 103.209 134.77 105.624 135.34 107.045C135.483 107.329 135.34 107.613 135.055 107.755C135.055 107.684 134.984 107.755 134.912 107.755Z" fill="#8CA5D0"/>
<path d="M128.709 141.779C128.637 141.779 128.637 141.779 128.709 141.779C128.352 141.779 128.138 141.495 128.209 141.211C128.281 140.287 129.778 117.984 137.978 110.17C138.121 110.028 138.192 109.957 138.192 109.815C139.333 105.198 140.26 99.1601 139.119 97.0291L135.126 90.4942C134.984 90.2101 135.055 89.926 135.34 89.7839C135.625 89.6418 135.911 89.7129 136.053 89.997L140.046 96.5319C141.686 99.5152 139.832 107.684 139.191 110.099C139.119 110.454 138.905 110.738 138.692 110.951C130.777 118.481 129.279 141.069 129.208 141.282C129.208 141.566 128.994 141.779 128.709 141.779Z" fill="#8CA5D0"/>
<path d="M156.732 111.165C156.447 111.165 156.233 110.952 156.233 110.668C155.805 105.695 151.741 100.794 151.669 100.794C151.598 100.723 151.598 100.652 151.527 100.581L149.958 92.2703C149.887 91.9862 150.101 91.702 150.386 91.631C150.671 91.56 150.956 91.7731 151.028 92.0572L152.596 100.226C153.238 101.007 156.875 105.695 157.303 110.596C157.231 110.881 157.017 111.165 156.732 111.165Z" fill="#8CA5D0"/>
<path d="M126.355 102.428C126.213 102.428 126.141 102.428 125.999 102.428C125.714 102.428 123.004 102.286 121.863 101.078C121.506 100.652 121.293 100.226 121.364 99.6575C121.364 99.3734 121.649 99.1603 121.934 99.1603C122.22 99.1603 122.433 99.4444 122.433 99.7285C122.433 99.9416 122.505 100.155 122.647 100.368C123.36 101.149 125.357 101.362 126.07 101.362C129.493 101.575 130.491 98.45 130.491 98.3789C130.562 98.0948 130.848 97.9527 131.133 98.0238C131.418 98.0948 131.561 98.3789 131.489 98.6631C131.489 98.8051 130.349 102.428 126.355 102.428Z" fill="#8CA5D0"/>
<path d="M121.863 112.372C121.72 112.372 121.578 112.301 121.435 112.23C121.221 112.017 121.221 111.661 121.507 111.448C123.646 109.531 124.858 102.854 124.929 102.783C125.001 102.498 125.286 102.285 125.571 102.356C125.856 102.427 126.07 102.711 125.999 102.996C125.928 103.28 124.715 110.099 122.291 112.301C122.148 112.301 122.006 112.372 121.863 112.372Z" fill="#8CA5D0"/>
<path d="M137.978 81.8994C137.764 81.8994 137.551 81.8994 137.337 81.8994C137.194 81.8994 137.051 81.8284 136.909 81.6863L134.27 78.1347C134.199 78.0637 133.201 76.43 133.914 74.8673C134.413 73.7308 135.697 73.0204 137.764 72.6653C138.05 72.5943 138.335 72.8073 138.406 73.0915C138.478 73.3756 138.264 73.6597 137.978 73.7308C136.338 73.9439 135.34 74.5121 134.983 75.2935C134.556 76.2879 135.269 77.4954 135.269 77.4954L137.764 80.8339C141.544 80.976 142.827 79.0581 142.827 78.9161C142.97 78.703 143.326 78.5609 143.54 78.774C143.754 78.9161 143.897 79.2712 143.683 79.4843C143.612 79.6264 142.114 81.8994 137.978 81.8994Z" fill="#8CA5D0"/>
<path d="M61.7515 162.165C59.6123 162.165 57.8296 160.389 57.8296 158.258C57.8296 156.128 59.6123 154.352 61.7515 154.352C63.8907 154.352 65.6733 156.128 65.6733 158.258C65.6733 160.389 63.8907 162.165 61.7515 162.165ZM61.7515 155.488C60.1827 155.488 58.8992 156.767 58.8992 158.33C58.8992 159.892 60.1827 161.171 61.7515 161.171C63.3202 161.171 64.6037 159.892 64.6037 158.33C64.6037 156.767 63.3202 155.488 61.7515 155.488Z" fill="#8CA5D0"/>
<path d="M99.3301 165.22C99.0449 165.22 98.7596 165.007 98.7596 164.651V162.094C98.7596 161.81 98.9736 161.526 99.3301 161.526C99.6866 161.526 99.9006 161.739 99.9006 162.094V164.651C99.9006 165.007 99.6153 165.22 99.3301 165.22Z" fill="#8CA5D0"/>
<path d="M99.3301 170.831C99.0449 170.831 98.7596 170.618 98.7596 170.263V167.706C98.7596 167.422 98.9736 167.137 99.3301 167.137C99.6866 167.137 99.9006 167.351 99.9006 167.706V170.263C99.9006 170.618 99.6153 170.831 99.3301 170.831Z" fill="#8CA5D0"/>
<path d="M97.8327 166.853H95.2656C94.9804 166.853 94.6952 166.64 94.6952 166.285C94.6952 165.93 94.9091 165.717 95.2656 165.717H97.8327C98.1179 165.717 98.4032 165.93 98.4032 166.285C98.4032 166.64 98.1179 166.853 97.8327 166.853Z" fill="#8CA5D0"/>
<path d="M103.466 166.853H100.899C100.614 166.853 100.328 166.64 100.328 166.285C100.328 165.93 100.542 165.717 100.899 165.717H103.466C103.751 165.717 104.036 165.93 104.036 166.285C104.036 166.64 103.751 166.853 103.466 166.853Z" fill="#8CA5D0"/>
<path d="M193.17 121.891C192.885 121.891 192.599 121.678 192.599 121.322V118.623C192.599 118.339 192.813 118.055 193.17 118.055C193.526 118.055 193.74 118.268 193.74 118.623V121.322C193.74 121.678 193.526 121.891 193.17 121.891Z" fill="#8CA5D0"/>
<path d="M193.17 127.716C192.885 127.716 192.599 127.502 192.599 127.147V124.448C192.599 124.164 192.813 123.88 193.17 123.88C193.526 123.88 193.74 124.093 193.74 124.448V127.147C193.74 127.431 193.526 127.716 193.17 127.716Z" fill="#8CA5D0"/>
<path d="M191.673 123.596H188.963C188.678 123.596 188.392 123.383 188.392 123.027C188.392 122.672 188.606 122.459 188.963 122.459H191.673C191.958 122.459 192.243 122.672 192.243 123.027C192.243 123.383 191.958 123.596 191.673 123.596Z" fill="#8CA5D0"/>
<path d="M197.449 123.596H194.739C194.454 123.596 194.168 123.383 194.168 123.027C194.168 122.672 194.382 122.459 194.739 122.459H197.449C197.734 122.459 198.019 122.672 198.019 123.027C198.019 123.383 197.734 123.596 197.449 123.596Z" fill="#8CA5D0"/>
<path d="M228.182 59.2406C227.896 59.2406 227.611 59.0275 227.611 58.6723V57.1096C227.611 56.8255 227.825 56.5414 228.182 56.5414C228.538 56.5414 228.752 56.7545 228.752 57.1096V58.6723C228.681 59.0275 228.467 59.2406 228.182 59.2406Z" fill="#8CA5D0"/>
<path d="M228.182 62.6499C227.896 62.6499 227.611 62.4368 227.611 62.0816V60.5189C227.611 60.2348 227.825 59.9507 228.182 59.9507C228.538 59.9507 228.752 60.1638 228.752 60.5189V62.0816C228.681 62.4368 228.467 62.6499 228.182 62.6499Z" fill="#8CA5D0"/>
<path d="M227.255 60.2351H225.686C225.401 60.2351 225.115 60.022 225.115 59.6669C225.115 59.3117 225.329 59.0986 225.686 59.0986H227.255C227.54 59.0986 227.825 59.3117 227.825 59.6669C227.825 60.022 227.54 60.2351 227.255 60.2351Z" fill="#8CA5D0"/>
<path d="M230.677 60.2351H229.108C228.823 60.2351 228.538 60.022 228.538 59.6669C228.538 59.3117 228.752 59.0986 229.108 59.0986H230.677C230.962 59.0986 231.248 59.3117 231.248 59.6669C231.248 60.022 230.962 60.2351 230.677 60.2351Z" fill="#8CA5D0"/>
<path d="M124.858 39.0677C124.573 39.0677 124.287 38.8546 124.287 38.4994V36.9367C124.287 36.6526 124.501 36.3685 124.858 36.3685C125.214 36.3685 125.428 36.5816 125.428 36.9367V38.4994C125.357 38.8546 125.143 39.0677 124.858 39.0677Z" fill="#8CA5D0"/>
<path d="M124.858 42.477C124.573 42.477 124.287 42.2639 124.287 41.9087V40.346C124.287 40.0619 124.501 39.7778 124.858 39.7778C125.214 39.7778 125.428 39.9909 125.428 40.346V41.9087C125.357 42.2639 125.143 42.477 124.858 42.477Z" fill="#8CA5D0"/>
<path d="M123.931 40.0623H122.362C122.077 40.0623 121.792 39.8492 121.792 39.494C121.792 39.1388 122.006 38.9258 122.362 38.9258H123.931C124.216 38.9258 124.501 39.1388 124.501 39.494C124.501 39.8492 124.216 40.0623 123.931 40.0623Z" fill="#8CA5D0"/>
<path d="M127.354 40.0623H125.785C125.5 40.0623 125.215 39.8492 125.215 39.494C125.215 39.1388 125.428 38.9258 125.785 38.9258H127.354C127.639 38.9258 127.924 39.1388 127.924 39.494C127.924 39.8492 127.639 40.0623 127.354 40.0623Z" fill="#8CA5D0"/>
<path d="M89.4899 44.1106C88.0638 44.1106 86.9229 42.9741 86.9229 41.5535C86.9229 40.1328 88.0638 38.9963 89.4899 38.9963C90.916 38.9963 92.0569 40.1328 92.0569 41.5535C92.0569 42.9741 90.916 44.1106 89.4899 44.1106ZM89.4899 40.0618C88.6342 40.0618 87.9925 40.7011 87.9925 41.5535C87.9925 42.4058 88.6342 43.0451 89.4899 43.0451C90.3456 43.0451 90.9873 42.4058 90.9873 41.5535C90.9873 40.7011 90.2743 40.0618 89.4899 40.0618Z" fill="#8CA5D0"/>
<path d="M59.755 16.2665C59.4698 16.2665 59.1846 16.0534 59.1846 15.6982V13.1411C59.1846 12.857 59.3985 12.5728 59.755 12.5728C60.1116 12.5728 60.3255 12.7859 60.3255 13.1411V15.6982C60.3255 16.0534 60.0403 16.2665 59.755 16.2665Z" fill="#8CA5D0"/>
<path d="M59.755 21.7362C59.4698 21.7362 59.1846 21.5231 59.1846 21.1679V18.6108C59.1846 18.3266 59.3985 18.0425 59.755 18.0425C60.1116 18.0425 60.3255 18.2556 60.3255 18.6108V21.1679C60.3255 21.5231 60.0403 21.7362 59.755 21.7362Z" fill="#8CA5D0"/>
<path d="M58.3288 17.9001H55.7617C55.4765 17.9001 55.1913 17.687 55.1913 17.3319C55.1913 16.9767 55.4052 16.7636 55.7617 16.7636H58.3288C58.614 16.7636 58.8993 16.9767 58.8993 17.3319C58.8993 17.687 58.614 17.9001 58.3288 17.9001Z" fill="#8CA5D0"/>
<path d="M63.8194 17.9001H61.2523C60.9671 17.9001 60.6819 17.687 60.6819 17.3319C60.6819 16.9767 60.8958 16.7636 61.2523 16.7636H63.8194C64.1046 16.7636 64.3898 16.9767 64.3898 17.3319C64.3898 17.687 64.1046 17.9001 63.8194 17.9001Z" fill="#8CA5D0"/>
<path d="M0.641502 132.19C0.356274 132.19 0.0710449 131.977 0.0710449 131.622C0.0710449 116.279 12.621 103.849 27.952 103.849C38.5054 103.849 48.0605 109.673 52.8381 119.049C52.9807 119.334 52.8381 119.618 52.6242 119.76C52.3389 119.902 52.0537 119.76 51.9111 119.547C47.2762 110.526 38.1489 104.914 27.952 104.914C13.1202 104.914 1.14065 116.919 1.14065 131.622C1.21195 131.977 0.926729 132.19 0.641502 132.19Z" fill="#8CA5D0"/>
<path d="M3.27984 143.91C3.06592 143.91 2.92331 143.768 2.78069 143.626C1.85371 141.708 1.21194 139.719 0.712795 137.731C0.641488 137.446 0.855408 137.162 1.14063 137.091C1.42586 137.02 1.71109 137.233 1.7824 137.518C2.21024 139.506 2.852 141.353 3.70768 143.2C3.85029 143.484 3.70768 143.768 3.42246 143.91C3.42246 143.839 3.35115 143.91 3.27984 143.91Z" fill="#8CA5D0"/>
<path d="M5.70435 148.102C5.56173 148.102 5.34781 148.031 5.27651 147.889C5.06259 147.604 4.84866 147.32 4.63474 147.036C4.49213 146.823 4.56343 146.468 4.77736 146.326C4.99128 146.184 5.34781 146.255 5.49042 146.468C5.70434 146.752 5.91827 147.036 6.06088 147.32C6.20349 147.533 6.20349 147.889 5.98957 148.102C5.91827 148.102 5.77565 148.102 5.70435 148.102Z" fill="#8CA5D0"/>
<path d="M15.9725 156.696C15.9012 156.696 15.8299 156.696 15.7586 156.625C12.1932 154.849 8.98442 152.292 6.41737 149.238C6.20345 149.025 6.27476 148.67 6.48868 148.457C6.7026 148.243 7.05913 148.314 7.27305 148.528C9.69749 151.511 12.835 153.997 16.2577 155.631C16.5429 155.773 16.6142 156.057 16.4716 156.341C16.329 156.554 16.1151 156.696 15.9725 156.696Z" fill="#8CA5D0"/>
<path d="M84.2842 111.662C84.0703 111.662 83.9277 111.52 83.7851 111.378C79.5067 102.783 70.8072 97.4558 61.1808 97.4558C53.9788 97.4558 47.1334 100.51 42.3558 105.909C42.1419 106.122 41.8567 106.122 41.5715 105.98C41.3575 105.767 41.3575 105.482 41.5001 105.198C46.4916 99.5868 53.6223 96.3903 61.1095 96.3903C71.1638 96.3903 80.1484 101.931 84.6408 110.881C84.7834 111.165 84.6408 111.449 84.4268 111.591C84.4268 111.591 84.3555 111.662 84.2842 111.662Z" fill="#8CA5D0"/>
<path d="M2.70947 102.428C2.63816 102.428 2.63816 102.428 2.70947 102.428C2.35293 102.428 2.13901 102.144 2.21032 101.86C3.27992 91.8442 9.05578 87.7244 13.762 85.9486C18.7535 84.1018 23.4597 84.599 23.6024 84.599C36.9367 85.4514 39.8603 96.6034 39.8603 96.7454C39.9316 97.0295 39.789 97.3137 39.5038 97.3847C39.2186 97.4557 38.9333 97.3137 38.862 97.0296C38.7194 96.6034 36.0811 86.5168 23.5311 85.7355C22.7467 85.6645 5.27651 83.9597 3.27992 102.073C3.20861 102.286 2.92339 102.428 2.70947 102.428Z" fill="#8CA5D0"/>
<path d="M170.28 157.975C170.066 157.975 169.924 157.833 169.781 157.69C169.639 157.406 169.781 157.122 169.995 156.98C170.851 156.554 171.706 156.128 172.491 155.631C172.776 155.489 173.061 155.56 173.204 155.844C173.346 156.128 173.275 156.412 172.99 156.554C172.134 156.98 171.279 157.477 170.423 157.904C170.423 157.975 170.352 157.975 170.28 157.975ZM175.272 155.275C175.058 155.275 174.915 155.204 174.844 154.991C174.701 154.707 174.773 154.423 175.058 154.281C175.842 153.784 176.698 153.287 177.482 152.789C177.768 152.647 178.053 152.718 178.195 152.931C178.338 153.144 178.267 153.5 178.053 153.642C177.268 154.139 176.413 154.636 175.628 155.133C175.414 155.204 175.343 155.275 175.272 155.275ZM180.049 152.221C179.907 152.221 179.693 152.15 179.621 152.008C179.479 151.795 179.479 151.44 179.764 151.298C180.548 150.8 181.333 150.232 182.046 149.664C182.26 149.522 182.616 149.522 182.759 149.806C182.902 150.019 182.902 150.374 182.616 150.516C181.832 151.085 181.048 151.653 180.263 152.15C180.263 152.15 180.121 152.221 180.049 152.221ZM184.613 148.812C184.47 148.812 184.328 148.74 184.185 148.598C183.971 148.385 184.043 148.03 184.256 147.817C184.97 147.249 185.754 146.61 186.467 146.041C186.681 145.828 187.037 145.899 187.251 146.112C187.465 146.325 187.394 146.681 187.18 146.894C186.467 147.533 185.683 148.101 184.97 148.74C184.827 148.74 184.756 148.812 184.613 148.812ZM188.963 145.118C188.82 145.118 188.677 145.047 188.535 144.976C188.321 144.763 188.321 144.408 188.535 144.194C189.248 143.555 189.89 142.916 190.603 142.277C190.817 142.064 191.173 142.064 191.387 142.277C191.601 142.49 191.601 142.845 191.387 143.058C190.674 143.697 190.032 144.408 189.319 145.047C189.248 145.047 189.105 145.118 188.963 145.118ZM193.027 141.14C192.885 141.14 192.742 141.069 192.671 140.998C192.457 140.785 192.457 140.43 192.671 140.217C193.312 139.577 193.954 138.867 194.596 138.157C194.81 137.944 195.166 137.944 195.38 138.086C195.594 138.299 195.594 138.654 195.452 138.867C194.81 139.577 194.168 140.288 193.526 140.998C193.312 141.069 193.17 141.14 193.027 141.14ZM196.806 136.878C196.664 136.878 196.593 136.807 196.45 136.736C196.236 136.523 196.165 136.239 196.379 135.955C196.949 135.244 197.591 134.463 198.161 133.753C198.375 133.54 198.66 133.469 198.946 133.682C199.16 133.895 199.231 134.179 199.017 134.463C198.446 135.244 197.805 135.955 197.234 136.665C197.163 136.807 196.949 136.878 196.806 136.878ZM200.3 132.403C200.158 132.403 200.087 132.403 200.015 132.332C199.801 132.19 199.73 131.835 199.873 131.622C200.443 130.84 200.942 130.059 201.513 129.278C201.655 129.065 202.012 128.994 202.226 129.136C202.44 129.278 202.511 129.633 202.368 129.846C201.869 130.627 201.299 131.409 200.728 132.19C200.657 132.332 200.514 132.403 200.3 132.403ZM203.509 127.715C203.438 127.715 203.295 127.715 203.224 127.644C202.939 127.502 202.868 127.147 203.081 126.934C203.581 126.152 204.08 125.3 204.508 124.519C204.65 124.235 205.007 124.163 205.221 124.306C205.506 124.448 205.577 124.803 205.435 125.016C204.935 125.868 204.436 126.65 203.937 127.502C203.866 127.573 203.652 127.715 203.509 127.715ZM206.362 122.743C206.29 122.743 206.219 122.743 206.076 122.672C205.791 122.53 205.72 122.246 205.862 121.962C206.29 121.109 206.718 120.257 207.146 119.475C207.289 119.191 207.574 119.12 207.859 119.262C208.144 119.404 208.216 119.688 208.073 119.973C207.645 120.825 207.217 121.677 206.789 122.53C206.718 122.672 206.504 122.743 206.362 122.743ZM208.857 117.629C208.786 117.629 208.715 117.629 208.643 117.558C208.358 117.415 208.287 117.131 208.358 116.847C208.715 115.995 209.143 115.071 209.499 114.219C209.642 113.935 209.927 113.793 210.212 113.935C210.497 114.077 210.64 114.361 210.497 114.645C210.141 115.498 209.784 116.421 209.356 117.273C209.214 117.558 209.071 117.629 208.857 117.629ZM210.996 112.372C210.925 112.372 210.854 112.372 210.783 112.372C210.497 112.301 210.355 111.946 210.497 111.662C210.854 110.81 211.139 109.886 211.424 108.963C211.496 108.679 211.852 108.537 212.066 108.608C212.351 108.679 212.494 109.034 212.423 109.247C212.137 110.17 211.781 111.023 211.496 111.946C211.424 112.23 211.21 112.372 210.996 112.372ZM212.779 106.974C212.708 106.974 212.708 106.974 212.637 106.974C212.351 106.903 212.209 106.619 212.28 106.335C212.565 105.411 212.779 104.559 212.993 103.635C213.064 103.351 213.35 103.209 213.635 103.28C213.92 103.351 214.063 103.635 213.991 103.919C213.777 104.843 213.492 105.766 213.207 106.69C213.207 106.832 212.993 106.974 212.779 106.974ZM214.134 101.433C214.063 101.433 214.063 101.433 213.991 101.433C213.706 101.362 213.492 101.078 213.564 100.794C213.777 99.8706 213.92 98.9472 214.134 98.0238C214.205 97.7397 214.491 97.5266 214.776 97.5976C215.061 97.6687 215.275 97.9528 215.204 98.2369C215.061 99.1603 214.847 100.155 214.633 101.078C214.633 101.291 214.419 101.433 214.134 101.433ZM215.132 95.8218H215.061C214.776 95.7508 214.562 95.5377 214.633 95.2536C214.776 94.3302 214.918 93.4067 214.99 92.4833C214.99 92.1992 215.275 91.9861 215.56 91.9861C215.845 91.9861 216.059 92.2702 216.059 92.5544C215.988 93.4778 215.845 94.4722 215.703 95.3956C215.631 95.6798 215.418 95.8218 215.132 95.8218Z" fill="#8CA5D0"/>
<path d="M51.9111 64.4258C51.8398 64.4258 51.8398 64.4258 51.7684 64.4258C51.4832 64.3548 51.2693 64.0706 51.3406 63.7865C51.5545 62.8631 51.8398 61.9397 52.0537 61.0163C52.125 60.7321 52.4102 60.5901 52.6954 60.6611C52.9807 60.7321 53.1233 61.0163 53.052 61.3004C52.7667 62.2238 52.5528 63.1472 52.3389 63.9996C52.4102 64.2837 52.1963 64.4258 51.9111 64.4258ZM53.4798 58.9563C53.4085 58.9563 53.3372 58.9563 53.3372 58.9563C53.052 58.8853 52.9094 58.6012 52.9807 58.3171C53.2659 57.3936 53.5511 56.4702 53.9077 55.6179C53.979 55.3337 54.3355 55.1917 54.6207 55.2627C54.9059 55.3337 55.0486 55.6889 54.9773 55.973C54.692 56.8254 54.3355 57.7488 54.0503 58.6722C53.9077 58.8143 53.6937 58.9563 53.4798 58.9563ZM55.3338 53.629C55.2625 53.629 55.1912 53.629 55.1199 53.5579C54.8346 53.4159 54.692 53.1317 54.8346 52.8476C55.1912 51.9952 55.5477 51.0718 55.9042 50.2194C56.0468 49.9353 56.3321 49.7933 56.6173 49.9353C56.9025 50.0774 57.0452 50.3615 56.9025 50.6456C56.546 51.498 56.1895 52.3504 55.8329 53.2738C55.7616 53.4869 55.5477 53.629 55.3338 53.629ZM57.6156 48.3726C57.5443 48.3726 57.473 48.3726 57.4017 48.3016C57.1165 48.1595 57.0452 47.8754 57.1165 47.5913C57.5443 46.7389 57.9721 45.8865 58.4 45.0341C58.5426 44.75 58.8278 44.679 59.113 44.821C59.3983 44.9631 59.4696 45.2472 59.327 45.5313C58.8991 46.3837 58.4713 47.2361 58.0434 48.0885C58.0434 48.3016 57.8295 48.3726 57.6156 48.3726ZM60.254 43.3294C60.1826 43.3294 60.04 43.3294 59.9687 43.2583C59.6835 43.1163 59.6122 42.7611 59.7548 42.548C60.254 41.6956 60.6818 40.9143 61.1809 40.0619C61.3236 39.7778 61.6801 39.7067 61.894 39.8488C62.1792 39.9909 62.2506 40.346 62.1079 40.5591C61.6088 41.3405 61.1096 42.1929 60.6818 42.9742C60.6105 43.2583 60.4679 43.3294 60.254 43.3294ZM203.438 40.1329C203.224 40.1329 203.082 40.0619 203.01 39.8488C202.796 39.4936 202.511 39.0675 202.297 38.7123C202.155 38.4992 202.226 38.144 202.44 38.002C202.654 37.8599 203.01 37.931 203.153 38.144C203.367 38.4992 203.652 38.9254 203.866 39.2806C204.009 39.5647 203.937 39.8488 203.723 39.9909C203.652 40.1329 203.581 40.1329 203.438 40.1329ZM63.2488 38.4992C63.1775 38.4992 63.0349 38.4992 62.9636 38.4282C62.7497 38.2861 62.6784 37.931 62.821 37.7179C63.3202 36.9365 63.8906 36.1552 64.4611 35.3738C64.6037 35.1607 64.9602 35.0897 65.1741 35.2317C65.388 35.3738 65.4594 35.729 65.3167 35.9421C64.7463 36.7234 64.2471 37.5048 63.748 38.2861C63.6054 38.4282 63.3915 38.4992 63.2488 38.4992ZM201.156 36.6524C201.014 36.6524 200.8 36.5813 200.728 36.4393C200.158 35.6579 199.659 34.8766 199.088 34.1663C198.946 33.9532 198.946 33.598 199.231 33.456C199.445 33.3139 199.801 33.3139 199.944 33.598C200.514 34.3794 201.085 35.1607 201.655 35.9421C201.798 36.1552 201.798 36.5103 201.513 36.6524C201.37 36.5813 201.228 36.6524 201.156 36.6524ZM66.529 33.8111C66.3863 33.8111 66.315 33.8111 66.1724 33.669C65.9585 33.456 65.8872 33.1718 66.1011 32.8877C66.6716 32.1063 67.242 31.396 67.8838 30.6147C68.0977 30.4016 68.3829 30.3306 68.6682 30.5436C68.8821 30.7567 68.9534 31.0409 68.7395 31.325C68.169 32.0353 67.5272 32.8167 66.9568 33.527C66.8855 33.7401 66.6716 33.8111 66.529 33.8111ZM197.734 32.1063C197.591 32.1063 197.448 32.0353 197.306 31.8933C196.735 31.1829 196.093 30.4016 195.523 29.6913C195.309 29.4782 195.38 29.123 195.594 28.9099C195.808 28.6968 196.165 28.7679 196.379 28.981C197.02 29.6913 197.591 30.4726 198.233 31.1829C198.447 31.396 198.375 31.7512 198.161 31.9643C197.947 32.0353 197.805 32.1063 197.734 32.1063ZM70.1656 29.4071C70.023 29.4071 69.8804 29.3361 69.8091 29.2651C69.5951 29.052 69.5952 28.7679 69.7378 28.4837C70.3795 27.7734 71.0213 27.0631 71.663 26.3528C71.877 26.1397 72.2335 26.1397 72.4474 26.3528C72.6613 26.5659 72.6613 26.921 72.4474 27.1341C71.8057 27.8444 71.1639 28.5548 70.5221 29.194C70.4508 29.4071 70.3082 29.4071 70.1656 29.4071ZM194.026 27.7734C193.883 27.7734 193.74 27.7024 193.598 27.6313C192.956 26.921 192.314 26.2817 191.672 25.5714C191.459 25.3583 191.459 25.0032 191.672 24.7901C191.886 24.577 192.243 24.577 192.457 24.7901C193.099 25.4294 193.812 26.1397 194.453 26.85C194.667 27.0631 194.667 27.4183 194.453 27.6313C194.24 27.7734 194.097 27.7734 194.026 27.7734ZM74.0162 25.2873C73.8736 25.2873 73.7309 25.2163 73.6596 25.1452C73.4457 24.9321 73.4457 24.577 73.6596 24.3639C74.3014 23.7246 75.0145 23.0143 75.7275 22.375C75.9415 22.1619 76.298 22.1619 76.5119 22.375C76.7258 22.5881 76.7258 22.9433 76.5119 23.1563C75.7988 23.7956 75.1571 24.4349 74.444 25.1452C74.3014 25.2163 74.1588 25.2873 74.0162 25.2873ZM189.961 23.7246C189.818 23.7246 189.676 23.6536 189.605 23.5825C188.963 22.9433 188.25 22.304 187.537 21.6647C187.323 21.4516 187.323 21.1675 187.465 20.8833C187.679 20.6702 187.964 20.6702 188.25 20.8123C188.963 21.4516 189.676 22.0909 190.389 22.7302C190.603 22.9433 190.603 23.2984 190.389 23.5115C190.246 23.7246 190.104 23.7246 189.961 23.7246ZM78.2233 21.4516C78.0807 21.4516 77.9381 21.3806 77.7954 21.2385C77.5815 21.0254 77.6528 20.6702 77.8667 20.4571C78.5798 19.8179 79.2929 19.1786 80.0773 18.6103C80.2912 18.3972 80.6477 18.4683 80.8616 18.6813C81.0755 18.8944 81.0042 19.2496 80.7903 19.4627C80.0773 20.031 79.3642 20.6702 78.6511 21.3095C78.4372 21.3806 78.2946 21.4516 78.2233 21.4516ZM185.754 19.9599C185.611 19.9599 185.54 19.8889 185.397 19.8179C184.684 19.2496 183.9 18.6103 183.187 18.0421C182.973 17.829 182.902 17.5448 183.116 17.2607C183.33 17.0476 183.615 16.9766 183.9 17.1897C184.684 17.7579 185.397 18.3972 186.111 18.9655C186.324 19.1786 186.396 19.4627 186.182 19.7468C186.039 19.8889 185.897 19.9599 185.754 19.9599ZM82.6443 17.829C82.5017 17.829 82.2878 17.7579 82.2165 17.6159C82.0025 17.4028 82.0738 17.0476 82.2878 16.8345C83.0721 16.2663 83.8565 15.698 84.5696 15.1298C84.7835 14.9877 85.14 14.9877 85.2827 15.2718C85.4253 15.4849 85.4253 15.8401 85.14 15.9821C84.3557 16.5504 83.5713 17.0476 82.8582 17.6159C82.8582 17.829 82.7156 17.829 82.6443 17.829ZM181.19 16.5504C181.048 16.5504 180.976 16.5504 180.905 16.4794C180.121 15.9111 179.336 15.4139 178.552 14.8456C178.338 14.7036 178.267 14.3484 178.409 14.1353C178.552 13.9222 178.909 13.8512 179.122 13.9933C179.907 14.4905 180.691 15.0587 181.476 15.627C181.689 15.769 181.761 16.1242 181.618 16.3373C181.547 16.4794 181.333 16.5504 181.19 16.5504ZM87.2792 14.5615C87.1366 14.5615 86.9227 14.4905 86.8514 14.3484C86.7088 14.1353 86.7801 13.7802 86.994 13.6381C87.7784 13.1409 88.6341 12.5726 89.4184 12.1464C89.7037 12.0044 89.9889 12.0754 90.1315 12.3595C90.2741 12.6437 90.2028 12.9278 89.9176 13.0698C89.1332 13.5671 88.2775 14.0643 87.4932 14.5615C87.4932 14.5615 87.4219 14.5615 87.2792 14.5615ZM176.413 13.354C176.341 13.354 176.199 13.354 176.128 13.2829C175.343 12.7857 174.488 12.2885 173.703 11.8623C173.418 11.7202 173.347 11.3651 173.489 11.152C173.632 10.8679 173.988 10.7968 174.202 10.9389C175.058 11.4361 175.842 11.9333 176.698 12.4306C176.983 12.5726 177.055 12.9278 176.841 13.1409C176.769 13.2829 176.627 13.354 176.413 13.354ZM92.1281 11.6492C91.9142 11.6492 91.7716 11.5782 91.629 11.3651C91.4863 11.081 91.5577 10.7968 91.8429 10.6548C92.6986 10.1575 93.5542 9.73135 94.3386 9.30516C94.6239 9.16309 94.9091 9.30516 95.0517 9.51825C95.1943 9.80238 95.0517 10.0865 94.8378 10.2286C93.9821 10.6548 93.1977 11.081 92.342 11.5782C92.342 11.5782 92.2707 11.6492 92.1281 11.6492ZM171.493 10.5837C171.421 10.5837 171.35 10.5837 171.279 10.5127C170.423 10.0865 169.567 9.66032 168.712 9.23413C168.426 9.09206 168.355 8.80794 168.498 8.52381C168.64 8.23968 168.926 8.16865 169.211 8.31071C170.066 8.73691 170.922 9.16309 171.778 9.58928C172.063 9.73135 172.134 10.0155 171.992 10.2996C171.849 10.4417 171.707 10.5837 171.493 10.5837ZM97.1909 9.02103C96.977 9.02103 96.8344 8.87897 96.6918 8.7369C96.5491 8.45278 96.6917 8.16865 96.977 8.02659C97.8327 7.6004 98.6883 7.24524 99.6153 6.81905C99.9006 6.67698 100.186 6.81905 100.328 7.10317C100.471 7.3873 100.328 7.67143 100.043 7.81349C99.1875 8.16865 98.3318 8.59484 97.4761 8.95C97.3335 9.02103 97.2622 9.02103 97.1909 9.02103ZM166.359 8.09762C166.287 8.09762 166.216 8.09762 166.145 8.02659C165.289 7.67143 164.433 7.24524 163.506 6.96111C163.221 6.81905 163.078 6.53492 163.221 6.25079C163.364 5.96667 163.649 5.8246 163.934 5.96667C164.79 6.32183 165.717 6.67698 166.572 7.10317C166.858 7.24524 167 7.52936 166.858 7.81349C166.786 7.95556 166.572 8.09762 166.359 8.09762ZM102.468 6.74802C102.254 6.74802 102.04 6.60595 101.968 6.39286C101.826 6.10873 101.968 5.8246 102.254 5.68254C103.109 5.32738 104.036 4.97222 104.963 4.68809C105.249 4.61706 105.534 4.75913 105.676 5.04325C105.748 5.32738 105.605 5.61151 105.32 5.75357C104.464 6.0377 103.537 6.39286 102.682 6.74802C102.539 6.74802 102.468 6.74802 102.468 6.74802ZM161.082 5.96667C161.01 5.96667 160.939 5.96667 160.868 5.96667C160.012 5.61151 159.085 5.32738 158.158 5.04325C157.873 4.97222 157.73 4.6881 157.802 4.40397C157.873 4.11984 158.158 3.97778 158.443 4.04881C159.37 4.33294 160.297 4.61706 161.153 4.97222C161.438 5.04325 161.581 5.39841 161.51 5.68254C161.51 5.8246 161.296 5.96667 161.082 5.96667ZM107.816 4.90119C107.602 4.90119 107.388 4.75913 107.316 4.54603C107.245 4.26191 107.388 3.97778 107.673 3.90675C108.6 3.62262 109.527 3.33849 110.454 3.1254C110.739 3.05437 111.024 3.19643 111.096 3.48056C111.167 3.76468 111.024 4.04881 110.739 4.11984C109.812 4.40397 108.957 4.61706 108.03 4.90119C107.887 4.90119 107.816 4.90119 107.816 4.90119ZM155.591 4.19087C155.52 4.19087 155.52 4.19087 155.449 4.19087C154.522 3.90675 153.595 3.69365 152.739 3.48056C152.454 3.40952 152.311 3.1254 152.382 2.84127C152.454 2.55714 152.739 2.41508 153.024 2.48611C153.951 2.69921 154.878 2.98333 155.805 3.19643C156.09 3.26746 156.233 3.55159 156.162 3.83572C156.09 4.04881 155.876 4.19087 155.591 4.19087ZM113.306 3.33849C113.092 3.33849 112.878 3.19643 112.807 2.9123C112.736 2.62817 112.95 2.34405 113.235 2.27302C114.162 2.05992 115.089 1.84682 116.016 1.63373C116.301 1.5627 116.586 1.77579 116.658 2.05992C116.729 2.34405 116.515 2.62817 116.23 2.69921C115.303 2.9123 114.376 3.1254 113.449 3.33849C113.378 3.33849 113.306 3.33849 113.306 3.33849ZM150.101 2.84127C150.029 2.84127 150.029 2.84127 149.958 2.84127C149.031 2.62817 148.104 2.48611 147.177 2.27302C146.892 2.20198 146.678 1.91786 146.749 1.63373C146.82 1.3496 147.106 1.13651 147.391 1.20754C148.318 1.3496 149.245 1.5627 150.243 1.77579C150.528 1.84683 150.742 2.13095 150.671 2.41508C150.528 2.69921 150.314 2.84127 150.101 2.84127ZM118.868 2.20198C118.583 2.20198 118.369 1.98889 118.369 1.77579C118.298 1.49167 118.512 1.20754 118.797 1.13651C119.724 0.994443 120.722 0.852381 121.649 0.710317C121.934 0.639286 122.22 0.85238 122.22 1.13651C122.22 1.42063 122.077 1.70476 121.792 1.70476C120.865 1.84683 119.938 1.98889 119.011 2.13095C118.939 2.20198 118.939 2.20198 118.868 2.20198ZM144.467 1.84682H144.396C143.469 1.70476 142.542 1.63373 141.615 1.49167C141.33 1.49167 141.116 1.20754 141.116 0.923412C141.116 0.639285 141.401 0.426189 141.686 0.426189C142.613 0.497221 143.612 0.639285 144.539 0.781348C144.824 0.85238 145.038 1.06548 144.966 1.3496C144.966 1.70476 144.681 1.84682 144.467 1.84682ZM124.501 1.49167C124.216 1.49167 124.002 1.27857 124.002 0.994446C124.002 0.710319 124.216 0.426189 124.501 0.426189C125.428 0.355158 126.427 0.284126 127.354 0.213095C127.639 0.213095 127.924 0.42619 127.924 0.710317C127.924 0.994444 127.71 1.27857 127.425 1.27857C126.498 1.27857 125.5 1.3496 124.501 1.49167C124.573 1.49167 124.573 1.49167 124.501 1.49167ZM138.763 1.27857C137.764 1.20754 136.837 1.13651 135.911 1.13651C135.625 1.13651 135.411 0.85238 135.411 0.568253C135.411 0.284126 135.697 0.0710307 135.982 0.0710307C136.909 0.0710307 137.907 0.142063 138.834 0.213095C139.119 0.213095 139.333 0.497221 139.333 0.781348C139.262 1.06548 139.048 1.27857 138.763 1.27857ZM130.206 1.13651C129.921 1.13651 129.707 0.923414 129.635 0.639287C129.635 0.35516 129.849 0.0710307 130.135 0.0710307C130.99 0.0710307 131.846 0 132.702 0H132.987C133.272 0 133.486 0.213095 133.486 0.568253C133.486 0.85238 133.272 1.06548 132.916 1.06548H132.63C131.917 1.06548 131.062 1.06548 130.206 1.13651Z" fill="#8CA5D0"/>
</svg>
