<svg width="34" height="34" viewBox="0 0 34 34" fill="none" xmlns="http://www.w3.org/2000/svg">
<path d="M16.624 18.0625C18.9712 18.0625 20.874 16.1597 20.874 13.8125C20.874 11.4653 18.9712 9.5625 16.624 9.5625C14.2768 9.5625 12.374 11.4653 12.374 13.8125C12.374 16.1597 14.2768 18.0625 16.624 18.0625Z" stroke="#8CA5D0" stroke-width="2.5" stroke-linecap="round" stroke-linejoin="round"/>
<path d="M27.2499 13.8123C27.2499 23.3748 16.625 30.8123 16.625 30.8123C16.625 30.8123 6 23.3748 6 13.8123C6 10.9944 7.11941 8.29193 9.11198 6.29936C11.1045 4.30679 13.807 3.18738 16.625 3.18738C19.4429 3.18738 22.1454 4.30679 24.1379 6.29936C26.1305 8.29193 27.2499 10.9944 27.2499 13.8123V13.8123Z" stroke="#8CA5D0" stroke-width="2.5" stroke-linecap="round" stroke-linejoin="round"/>
</svg>
